<svg xmlns="http://www.w3.org/2000/svg" width="210" height="56" viewBox="0 0 210 56" fill="none">
  <path d="M43.0739 49.8523C43.0739 53.002 40.4735 55.5444 37.2573 55.5444C34.0411 55.5444 31.4442 53.002 31.4442 49.8523V49.3297C28.615 53.0691 24.7127 55.841 18.6709 55.841C9.10671 55.841 0 48.5069 0 35.1063V34.958C0 21.5539 8.95188 14.2233 18.6709 14.2233C24.8675 14.2233 28.6925 16.9917 31.4442 20.2086V5.69215C31.4442 2.55299 34.0481 0 37.2573 0C40.4664 0 43.0739 2.55299 43.0739 5.69215V49.8523ZM11.6332 34.9616V35.1099C11.6332 41.7731 16.2182 46.187 21.6513 46.187C27.0844 46.187 31.599 41.7731 31.599 35.1099V34.9616C31.599 28.2983 27.0879 23.8844 21.6513 23.8844C16.2147 23.8844 11.6332 28.2242 11.6332 34.9616Z" fill="#00C2DE"/>
  <path d="M72.2181 55.9961C59.8987 55.9961 50.792 47.5391 50.792 35.2614V35.1096C50.792 23.6582 59.1351 14.2266 71.0674 14.2266C84.7627 14.2266 90.808 25.2295 90.808 33.5418C90.808 36.8327 88.4328 39.0079 85.3785 39.0079H62.3443C63.4949 44.1739 67.1651 46.8611 72.3624 46.8611C75.5821 46.8611 78.2599 45.8865 80.6281 44.1739C81.4726 43.5701 82.2362 43.27 83.4642 43.27C86.0647 43.27 87.9789 45.2156 87.9789 47.7615C87.9789 49.2623 87.2857 50.3816 86.4482 51.1338C82.852 54.1281 78.1825 55.9996 72.2181 55.9996M79.7132 31.8927C79.027 26.8044 75.9656 23.3616 71.071 23.3616C66.1763 23.3616 63.1114 26.7267 62.1965 31.8927H79.7167H79.7132Z" fill="#00C2DE"/>
  <path d="M99.5234 5.69215C99.5234 2.55299 102.134 0 105.344 0C108.553 0 111.157 2.55299 111.157 5.69215V49.8523C111.157 52.9985 108.556 55.5444 105.344 55.5444C102.131 55.5444 99.5234 52.9985 99.5234 49.8523V5.69215Z" fill="#00C2DE"/>
  <path d="M140.844 55.9961C128.532 55.9961 119.425 47.5391 119.425 35.2614V35.1096C119.425 23.6582 127.764 14.2266 139.697 14.2266C153.392 14.2266 159.437 25.2295 159.437 33.5418C159.437 36.8327 157.069 39.0079 154.008 39.0079H130.981C132.128 44.1739 135.798 46.8611 141.002 46.8611C144.215 46.8611 146.889 45.8865 149.264 44.1739C150.102 43.5701 150.873 43.27 152.094 43.27C154.694 43.27 156.608 45.2156 156.608 47.7615C156.608 49.2623 155.922 50.3816 155.074 51.1338C151.485 54.1281 146.819 55.9996 140.847 55.9996M148.35 31.8927C147.656 26.8044 144.595 23.3616 139.7 23.3616C134.806 23.3616 131.748 26.7267 130.826 31.8927H148.35Z" fill="#00C2DE"/>
  <path d="M165.629 35.2585V35.1066C165.629 23.5811 175.123 14.2236 187.896 14.2236C200.669 14.2236 210.005 23.4292 210.005 34.9583V35.1066C210.005 46.6357 200.518 55.9932 187.738 55.9932C174.957 55.9932 165.629 46.784 165.629 35.2585ZM198.526 35.2585V35.1066C198.526 29.1956 194.167 24.0295 187.738 24.0295C181.309 24.0295 177.107 29.0472 177.107 34.9619V35.1102C177.107 41.0213 181.467 46.1873 187.896 46.1873C194.325 46.1873 198.526 41.1731 198.526 35.262" fill="#00C2DE"/>
</svg>