<svg xmlns="http://www.w3.org/2000/svg" width="28" height="28" viewBox="0 0 28 28" fill="none">
  <path d="M4.4914 10.0566C4.32112 9.28956 4.34727 8.49193 4.56742 7.73768C4.78757 6.98343 5.19461 6.29697 5.75078 5.74196C6.30696 5.18695 6.99426 4.78135 7.74898 4.56278C8.50369 4.3442 9.30138 4.31973 10.0681 4.49162C10.4901 3.83164 11.0714 3.2885 11.7585 2.91228C12.4456 2.53607 13.2164 2.33887 13.9997 2.33887C14.7831 2.33887 15.5539 2.53607 16.241 2.91228C16.9281 3.2885 17.5094 3.83164 17.9314 4.49162C18.6993 4.31898 19.4983 4.34334 20.2542 4.56245C21.0102 4.78156 21.6984 5.18828 22.2549 5.7448C22.8114 6.30131 23.2181 6.98954 23.4372 7.74545C23.6563 8.50137 23.6807 9.30042 23.5081 10.0683C24.1681 10.4903 24.7112 11.0716 25.0874 11.7587C25.4636 12.4458 25.6608 13.2166 25.6608 14C25.6608 14.7833 25.4636 15.5541 25.0874 16.2412C24.7112 16.9283 24.1681 17.5096 23.5081 17.9316C23.68 18.6983 23.6555 19.496 23.4369 20.2507C23.2183 21.0054 22.8127 21.6927 22.2577 22.2489C21.7027 22.8051 21.0163 23.2121 20.262 23.4323C19.5078 23.6524 18.7101 23.6786 17.9431 23.5083C17.5216 24.1708 16.9398 24.7163 16.2515 25.0942C15.5633 25.4721 14.7908 25.6702 14.0056 25.6702C13.2204 25.6702 12.4479 25.4721 11.7596 25.0942C11.0713 24.7163 10.4895 24.1708 10.0681 23.5083C9.30138 23.6802 8.50369 23.6557 7.74898 23.4371C6.99426 23.2185 6.30696 22.813 5.75078 22.2579C5.19461 21.7029 4.78757 21.0165 4.56742 20.2622C4.34727 19.508 4.32112 18.7103 4.4914 17.9433C3.82635 17.5224 3.27855 16.9402 2.89896 16.2507C2.51937 15.5612 2.32031 14.787 2.32031 14C2.32031 13.2129 2.51937 12.4387 2.89896 11.7492C3.27855 11.0597 3.82635 10.4775 4.4914 10.0566Z" stroke="white" stroke-width="2.33333" stroke-linecap="round" stroke-linejoin="round"/>
  <path d="M18.6663 9.33301H11.6663C11.0475 9.33301 10.454 9.57884 10.0164 10.0164C9.57884 10.454 9.33301 11.0475 9.33301 11.6663C9.33301 12.2852 9.57884 12.8787 10.0164 13.3163C10.454 13.7538 11.0475 13.9997 11.6663 13.9997H16.333C16.9518 13.9997 17.5453 14.2455 17.9829 14.6831C18.4205 15.1207 18.6663 15.7142 18.6663 16.333C18.6663 16.9518 18.4205 17.5453 17.9829 17.9829C17.5453 18.4205 16.9518 18.6663 16.333 18.6663H9.33301" stroke="white" stroke-width="2.33333" stroke-linecap="round" stroke-linejoin="round"/>
  <path d="M14 21V7" stroke="white" stroke-width="2.33333" stroke-linecap="round" stroke-linejoin="round"/>
</svg>