<svg xmlns="http://www.w3.org/2000/svg" width="28" height="28" viewBox="0 0 28 28" fill="none">
  <path d="M18.6673 24.5V22.1666C18.6673 20.9289 18.1756 19.742 17.3004 18.8668C16.4253 17.9917 15.2383 17.5 14.0006 17.5H7.00065C5.76297 17.5 4.57599 17.9917 3.70081 18.8668C2.82565 19.742 2.33398 20.9289 2.33398 22.1666V24.5" stroke="white" stroke-width="2.625" stroke-linecap="round" stroke-linejoin="round"/>
  <path d="M10.5006 12.8334C13.078 12.8334 15.1673 10.744 15.1673 8.16666C15.1673 5.58933 13.078 3.5 10.5006 3.5C7.92332 3.5 5.83398 5.58933 5.83398 8.16666C5.83398 10.744 7.92332 12.8334 10.5006 12.8334Z" stroke="white" stroke-width="2.625" stroke-linecap="round" stroke-linejoin="round"/>
  <path d="M18.666 12.8334L20.9994 15.1666L25.666 10.5" stroke="white" stroke-width="2.625" stroke-linecap="round" stroke-linejoin="round"/>
</svg>