<svg xmlns="http://www.w3.org/2000/svg" width="28" height="28" viewBox="0 0 28 28" fill="none">
  <path d="M17.5003 2.33301H7.00033C6.38149 2.33301 5.78799 2.57884 5.35041 3.01643C4.91282 3.45401 4.66699 4.0475 4.66699 4.66634V23.333C4.66699 23.9518 4.91282 24.5453 5.35041 24.9829C5.78799 25.4205 6.38149 25.6663 7.00033 25.6663H21.0003C21.6192 25.6663 22.2127 25.4205 22.6502 24.9829C23.0878 24.5453 23.3337 23.9518 23.3337 23.333V8.16634L17.5003 2.33301Z" stroke="white" stroke-width="2.33333" stroke-linecap="round" stroke-linejoin="round"/>
  <path d="M16.333 2.33301V6.99967C16.333 7.61851 16.5788 8.21201 17.0164 8.64959C17.454 9.08718 18.0475 9.33301 18.6663 9.33301H23.333" stroke="white" stroke-width="2.33333" stroke-linecap="round" stroke-linejoin="round"/>
  <path d="M10.5 17.5003L12.8333 19.8337L17.5 15.167" stroke="white" stroke-width="2.33333" stroke-linecap="round" stroke-linejoin="round"/>
</svg>