<svg xmlns="http://www.w3.org/2000/svg" width="28" height="28" viewBox="0 0 28 28" fill="none">
  <path d="M23.3327 15.1678C23.3327 21.0012 19.2494 23.9178 14.396 25.6095C14.1419 25.6956 13.8658 25.6915 13.6144 25.5978C8.74935 23.9178 4.66602 21.0012 4.66602 15.1678V7.00117C4.66602 6.69176 4.78894 6.39501 5.00773 6.17621C5.22652 5.95742 5.52326 5.83451 5.83269 5.83451C8.16602 5.83451 11.0827 4.43451 13.1127 2.66117C13.3598 2.45 13.6743 2.33398 13.9994 2.33398C14.3244 2.33398 14.6389 2.45 14.886 2.66117C16.9277 4.44617 19.8327 5.83451 22.166 5.83451C22.4755 5.83451 22.7722 5.95742 22.9909 6.17621C23.2098 6.39501 23.3327 6.69176 23.3327 7.00117V15.1678Z" stroke="white" stroke-width="2.625" stroke-linecap="round" stroke-linejoin="round"/>
  <path d="M10.499 14.0012L12.8324 16.3346L17.499 11.668" stroke="white" stroke-width="2.33334" stroke-linecap="round" stroke-linejoin="round"/>
</svg>