<svg xmlns="http://www.w3.org/2000/svg" width="32" height="32" viewBox="0 0 32 32" fill="none">
  <path d="M31.3726 8.05828V30.4129C31.182 30.9694 31.238 31.0094 30.6456 31.312H1.35396C0.762266 31.0094 0.817512 30.9686 0.626953 30.4129V8.05828C0.626953 7.70198 0.909589 7.3697 1.23306 7.22318L15.5922 0.710556C15.8636 0.587254 16.1183 0.604068 16.3897 0.72657L30.7256 7.19996C31.1276 7.38171 31.2837 7.65794 31.3726 8.05748V8.05828ZM25.2667 11.5356C25.8199 11.5356 26.1346 11.9383 26.1802 12.4203V29.5153L29.5398 29.5145V8.64116L15.9749 2.51286L2.46048 8.64196V29.5137L5.75923 29.5153V12.4692C5.77364 11.9271 6.14515 11.5348 6.70241 11.5348H25.2659L25.2667 11.5356ZM17.1687 29.5105V23.2005C17.2064 22.6905 17.5819 22.3198 18.1039 22.323L24.3755 22.319L24.3723 13.3315H7.57354L7.56793 15.129L13.8972 15.133C14.3632 15.133 14.7683 15.5389 14.7691 16.0129L14.7715 29.5153L17.1695 29.5105H17.1687ZM11.1733 16.9281L11.1597 17.8528C11.1525 18.3524 10.729 18.7224 10.2646 18.7232C9.80019 18.724 9.37904 18.3524 9.36943 17.852L9.35262 16.9273L7.56393 16.9289V22.3222H12.9644V16.9289H11.1725L11.1733 16.9281ZM11.1733 24.1205L11.1597 25.046C11.1525 25.5456 10.729 25.9156 10.2646 25.9163C9.80019 25.9172 9.37904 25.5456 9.36943 25.0452L9.35262 24.1205L7.56393 24.1221V29.5153H12.9644V24.1221H11.1725L11.1733 24.1205ZM22.5828 24.1205L22.5692 25.0452C22.562 25.5448 22.1385 25.9148 21.6741 25.9156C21.2097 25.9164 20.7885 25.5448 20.7789 25.0444L20.7621 24.1197L18.9734 24.1213V29.5145H24.3739V24.1213H22.582L22.5828 24.1205Z" fill="#7F22FE"/>
  <path d="M18.6738 8.53711L13.2997 8.54031C12.7761 8.54031 12.3877 8.14718 12.3725 7.66918C12.3565 7.15996 12.7561 6.74041 13.2989 6.74121H18.6418C19.1638 6.74121 19.5529 7.12633 19.5681 7.61314C19.5825 8.07352 19.227 8.53791 18.6738 8.53791V8.53711Z" fill="#7F22FE"/>
</svg>