<svg xmlns="http://www.w3.org/2000/svg" width="32" height="26" viewBox="0 0 32 26" fill="none">
  <g clip-path="url(#clip0_11117_3295)">
    <path d="M32.0001 13.1963V22.4257C31.8198 22.7605 31.5726 23.1171 31.126 23.1187L28.1193 23.1262C27.6776 24.6275 26.3209 25.6344 24.7821 25.621C23.275 25.6077 21.9366 24.6066 21.5041 23.1221L10.4912 23.1246C10.0462 24.6567 8.67269 25.6319 7.16061 25.6202C5.6502 25.6085 4.31512 24.6074 3.88095 23.1254L0.936947 23.1204C0.411768 23.1196 0.0185104 22.7054 0.000976562 22.1853L0.00264645 15.9365C0.00264645 15.4147 0.425127 15.0031 0.932772 15.0014L2.50163 14.9964V8.50055C2.48493 7.9545 2.8857 7.50112 3.43676 7.50029L6.25052 7.49695L6.25219 0.936805C6.25219 0.419141 6.66799 0 7.18983 0H14.6859C15.2069 0 15.6236 0.419141 15.6236 0.938475L15.6253 7.49862L18.439 7.50196C18.9642 7.50196 19.3574 7.91776 19.375 8.43876V14.9997H21.3747L21.3763 7.18969C21.3763 6.66702 21.7946 6.25121 22.3131 6.25038H27.9373C28.3039 6.24954 28.6195 6.45494 28.7814 6.77723L32.0001 13.1963ZM11.8772 1.87445L11.8714 2.8171C11.868 3.35897 11.4155 3.76142 10.9078 3.74555C10.4286 3.73052 10.0061 3.33893 10.0036 2.81543L9.99858 1.87278H8.1258V7.49862H13.7508V1.87361H11.878L11.8772 1.87445ZM29.5404 12.4949L27.3554 8.12232L23.2499 8.12482V12.5016L29.5404 12.4949ZM8.12747 9.3739L8.12162 10.3165C8.11829 10.8584 7.66575 11.2609 7.1581 11.245C6.67885 11.23 6.25636 10.8384 6.25386 10.3149L6.24885 9.37223H4.37607V14.9981H10.0011V9.37306H8.1283L8.12747 9.3739ZM15.6269 9.3739L15.6211 10.3165C15.6177 10.8584 15.1652 11.2609 14.6576 11.245C14.1783 11.23 13.7558 10.8384 13.7533 10.3149L13.7483 9.37223H11.8755V14.9981H17.5005V9.37306H15.6278L15.6269 9.3739ZM29.1471 18.7394C28.5986 18.7311 28.2379 18.2477 28.2538 17.7818C28.2696 17.3159 28.662 16.88 29.1839 16.8775L30.1257 16.8717V14.3744H23.2483L23.2524 19.1185C25.2263 18.1491 27.5073 19.1736 28.1202 21.2484L30.1249 21.2501V18.7545L29.1463 18.7403L29.1471 18.7394ZM10.502 21.2501L21.3763 21.2484V16.8734H1.87626V21.251L3.88513 21.2409C4.336 19.7122 5.70113 18.742 7.21655 18.7503C8.73364 18.7595 10.0537 19.7631 10.5029 21.2493L10.502 21.2501ZM8.74867 22.1861C8.74867 21.3244 8.04982 20.6256 7.18816 20.6256C6.3265 20.6256 5.62765 21.3244 5.62765 22.1861C5.62765 23.0477 6.3265 23.7466 7.18816 23.7466C8.04982 23.7466 8.74867 23.0477 8.74867 22.1861ZM26.3735 22.1861C26.3735 21.3244 25.6746 20.6256 24.813 20.6256C23.9513 20.6256 23.2524 21.3244 23.2524 22.1861C23.2524 23.0477 23.9513 23.7466 24.813 23.7466C25.6746 23.7466 26.3735 23.0477 26.3735 22.1861Z" fill="#009966"/>
  </g>
  <defs>
    <clipPath id="clip0_11117_3295">
      <rect width="32" height="25.6219" fill="white"/>
    </clipPath>
  </defs>
</svg>