<svg xmlns="http://www.w3.org/2000/svg" width="32" height="32" viewBox="0 0 32 32" fill="none">
  <path d="M15.1758 1.56738C23.1868 1.89296 29.3193 8.87492 28.627 16.9131C28.6114 17.0938 28.489 17.2308 28.3613 17.3135C28.2332 17.3964 28.0685 17.4452 27.9209 17.4268C27.7415 17.4044 27.5902 17.3234 27.4863 17.1934C27.3833 17.0642 27.3346 16.8976 27.3398 16.7188L27.3496 16.3623H23.2363C23.2023 17.052 23.1599 17.7022 23.0918 18.375C23.0529 18.7569 22.7263 18.9906 22.3857 18.9658C22.0342 18.9401 21.757 18.6275 21.7939 18.2402C21.8534 17.6224 21.8963 17.0349 21.9219 16.3613L15.2764 16.3604V22.3262C16.428 22.3799 17.5139 22.5295 18.6045 22.8076H18.6035C18.9681 22.8876 19.2047 23.2016 19.1416 23.5791V23.5801C19.0836 23.9205 18.7333 24.1904 18.3379 24.0928C17.3203 23.8434 16.3077 23.678 15.2764 23.6494V28.5146C16.0751 28.4754 16.8192 28.3557 17.584 28.1924C17.9077 28.1236 18.1839 28.2985 18.3047 28.5498L18.3467 28.6621L18.3652 28.7812C18.3718 28.9014 18.3435 29.0248 18.2949 29.1289C18.2313 29.2653 18.1152 29.4038 17.9492 29.4443C9.82312 31.4282 1.8805 25.9059 0.707031 17.7275C-0.476117 9.48576 5.65728 1.93035 14.0557 1.56738C14.4069 1.55218 14.8106 1.55221 15.1758 1.56738ZM13.9688 23.6494C12.3982 23.7153 10.8845 24.0084 9.39062 24.6035C9.92235 25.5917 10.5851 26.474 11.4131 27.2129H11.4121C12.163 27.8515 12.976 28.3174 13.9668 28.4785L13.9688 23.6494ZM8.20801 25.1797C7.78093 25.4243 7.39654 25.6858 7.02832 25.9932C7.94854 26.6681 8.90368 27.2293 9.95703 27.6279C9.26227 26.8731 8.69534 26.0829 8.20801 25.1797ZM1.91504 16.3633C2.08952 19.7274 3.54259 22.843 5.99707 25.1348C6.49631 24.7129 7.01979 24.335 7.61621 23.9971C7.18075 22.954 6.82796 21.9127 6.56445 20.7656C6.22743 19.2863 6.06031 17.8685 6.01465 16.3633H1.91504ZM7.32715 16.3613C7.35959 17.6959 7.51711 18.9822 7.79492 20.2812H7.79395C8.039 21.3649 8.35306 22.3837 8.80078 23.418C10.4626 22.7292 12.1852 22.4108 13.9707 22.3271L13.9678 16.3613H7.32715ZM6.01367 6.28516C3.57575 8.55666 2.10555 11.6391 1.91699 15.0391L6.01367 15.0469C6.05799 13.5597 6.22321 12.1555 6.5498 10.6963L6.55957 10.6543L6.56055 10.6523C6.82506 9.51756 7.162 8.4807 7.61914 7.41309C7.05298 7.0816 6.51998 6.71955 6.01367 6.28516ZM20.4443 7.98828C18.7798 8.67464 17.0689 8.99913 15.2764 9.07422V15.0469L21.9229 15.0459C21.8797 13.6805 21.7288 12.4337 21.459 11.1562C21.2108 10.0576 20.8938 9.01919 20.4443 7.98828ZM23.2402 6.26855C22.7313 6.71771 22.2142 7.0716 21.626 7.40723C22.68 9.88772 23.1314 12.3333 23.2373 15.0469L27.3564 15.0449C27.1783 11.6772 25.6958 8.52757 23.2402 6.26855ZM8.79688 7.98828C8.35786 9.0131 8.04619 10.0119 7.80273 11.0781L7.80371 11.0791C7.51939 12.3972 7.3578 13.7003 7.32715 15.0469H13.9697L13.9678 9.07324C12.1482 9.00022 10.4506 8.66153 8.79688 7.98828ZM13.9668 2.93164C13.0519 3.07187 12.2986 3.48216 11.5869 4.04492L11.5879 4.0459C10.681 4.7971 9.97733 5.72973 9.38867 6.79785C10.8558 7.38907 12.3821 7.68656 13.9697 7.75586L13.9668 2.93164ZM15.2773 7.75293C16.8373 7.68978 18.3653 7.39811 19.8574 6.7998C19.2737 5.7399 18.5731 4.80957 17.6748 4.05859V4.05762C16.9567 3.48436 16.182 3.06165 15.2773 2.93066V7.75293ZM19.3223 3.80664C20.0005 4.56262 20.5627 5.34438 21.042 6.22559C21.4771 5.96957 21.8622 5.72117 22.2109 5.41113C21.2841 4.74558 20.3619 4.19524 19.3223 3.80664ZM9.91309 3.82227C8.87291 4.223 7.9318 4.77146 7.04883 5.43066C7.4218 5.73699 7.79514 5.99327 8.21094 6.22363C8.69444 5.32147 9.24943 4.55759 9.91309 3.82227Z" fill="#0084D1" stroke="#0084D1" stroke-width="0.3"/>
  <path d="M28.34 18.7133C28.8283 18.5462 29.4287 18.4761 29.9404 18.7123C30.0974 18.7848 30.2266 18.9063 30.3088 19.0585C30.5763 19.5543 30.5445 20.1581 30.4083 20.6558C30.2638 21.1831 29.9673 21.7331 29.5244 22.2045L28.1701 23.6448L29.0661 27.1948L29.0694 27.2094C29.2084 27.8076 28.9464 28.3016 28.5639 28.6076C28.509 28.6515 28.4489 28.6886 28.3845 28.7167L28.1435 28.821L28.1436 28.8219C27.6409 29.0413 26.9829 28.9892 26.5603 28.4608C26.5503 28.4484 26.5399 28.4357 26.5308 28.4227L25.2062 26.5469L24.6097 26.9719L23.6501 29.1952C23.6358 29.2282 23.6188 29.2608 23.6003 29.2916L23.1553 30.0314C23.012 30.2692 22.7552 30.4151 22.4776 30.4178C22.1997 30.4204 21.9395 30.2789 21.7918 30.0435L20.8604 28.559L19.4077 27.8099C19.1763 27.6906 19.0171 27.4655 18.9815 27.2076C18.946 26.9498 19.0383 26.6906 19.2286 26.5131L19.8553 25.9298L19.9736 25.8382C20.0156 25.8118 20.0599 25.7889 20.1063 25.7706L22.4179 24.8574L22.7836 24.2696L20.8292 23.0652C20.8156 23.0568 20.8023 23.0482 20.7893 23.039C20.2357 22.6502 20.1439 21.9965 20.3314 21.4812L20.3845 21.3643L20.5233 21.1157C20.7703 20.6388 21.2576 20.3956 21.7754 20.4427L21.8833 20.4569L21.8981 20.4594L25.4949 21.131L26.8492 19.6908C27.2921 19.2195 27.8228 18.8902 28.34 18.7133Z" stroke="#0084D1" stroke-width="1.6" stroke-linecap="round" stroke-linejoin="round"/>
</svg>