<svg xmlns="http://www.w3.org/2000/svg" width="32" height="29" viewBox="0 0 32 29" fill="none">
  <g clip-path="url(#clip0_11117_3318)">
    <path d="M32 19.9043V20.3826C31.7975 20.8401 31.4625 21.0818 30.9308 21.0818L21.9992 21.0776L22.0017 25.6934C22.0017 26.2043 21.6917 26.5976 21.1825 26.6893L19.085 26.6993C18.6667 27.8359 17.6258 28.5501 16.4667 28.5626C15.3075 28.5751 14.2133 27.8534 13.7858 26.6943H8.2125C7.79333 27.8359 6.75 28.5501 5.5925 28.5626C4.40917 28.5751 3.34083 27.8518 2.91333 26.7009L0.873333 26.6868C0.429167 26.6834 0.188333 26.3393 0 26.0076V16.1518C0.209167 15.7176 0.5425 15.4576 1.06417 15.4584L1.87417 15.4601V2.68345C1.875 2.15428 2.29417 1.74345 2.8125 1.74345L9.8125 1.74678C12.08 1.74762 14.1075 3.17178 14.8833 5.29595L18.5958 15.4651L20.125 15.4618V0.938449C20.125 0.371782 20.5875 -0.0123846 21.0925 -0.000717981C21.5683 0.0101154 21.9983 0.404282 21.9983 0.928449L22.0008 4.23595L28.5617 4.23762C29.0808 4.23762 29.5 4.64928 29.5 5.17928V19.2051L30.9375 19.2001C31.4567 19.1984 31.8017 19.4559 32.0008 19.9034L32 19.9043ZM7.50167 15.4659L11.2542 15.4643C11.5767 13.3168 12.8442 11.4918 14.7725 10.4534L13.11 5.88762C12.5142 4.40762 11.1 3.52845 9.49583 3.61428L3.75 3.61262V15.4643L5.625 15.4659L5.62667 10.1634C5.62667 9.61345 6.08833 9.21595 6.5925 9.23178C7.06917 9.24678 7.49833 9.63345 7.49833 10.1643L7.50167 15.4668V15.4659ZM25.7508 6.11012L25.7475 8.29595C25.7467 8.83678 25.2883 9.23928 24.7825 9.22345C24.305 9.20845 23.8775 8.81845 23.8767 8.29512L23.8733 6.10762H21.9992V11.7226H27.625V6.10762L25.7508 6.11012ZM16.5917 15.4501L15.42 12.2351C14.2342 12.9601 13.4308 14.1034 13.155 15.4676L16.5917 15.4493V15.4501ZM25.7492 13.5951V15.7809C25.7308 16.3218 25.3 16.7243 24.7808 16.7084C24.3075 16.6934 23.8775 16.3026 23.8767 15.7801L23.8733 13.5926H21.9992V19.2076H27.625V13.5926L25.7492 13.5951ZM20.125 17.3368H1.875V19.2084H20.125V17.3368ZM13.79 24.8193C14.2308 23.6284 15.3025 22.9451 16.4667 22.9534C17.625 22.9618 18.6675 23.6793 19.0833 24.8134L20.1258 24.8226V21.0793H1.87583V24.8226L2.91667 24.8134C3.33917 23.6609 4.40917 22.9418 5.5925 22.9534C6.75167 22.9643 7.79417 23.6793 8.21417 24.8235L13.7908 24.8201L13.79 24.8193ZM6.49583 25.7568C6.49583 25.2418 6.0775 24.8251 5.5625 24.8251C5.0475 24.8251 4.62917 25.2426 4.62917 25.7568C4.62917 26.2709 5.0475 26.6884 5.5625 26.6884C6.0775 26.6884 6.49583 26.2709 6.49583 25.7568ZM17.3708 25.7568C17.3708 25.2418 16.9525 24.8251 16.4375 24.8251C15.9225 24.8251 15.5042 25.2426 15.5042 25.7568C15.5042 26.2709 15.9225 26.6884 16.4375 26.6884C16.9525 26.6884 17.3708 26.2709 17.3708 25.7568Z" fill="#E17100"/>
  </g>
  <defs>
    <clipPath id="clip0_11117_3318">
      <rect width="32" height="28.5633" fill="white"/>
    </clipPath>
  </defs>
</svg>
