<svg xmlns="http://www.w3.org/2000/svg" width="28" height="32" viewBox="0 0 28 32" fill="none">
  <g clip-path="url(#clip0_11117_3339)">
    <path d="M19.0838 1.17871C20.1819 1.4461 20.9872 2.31218 20.9866 3.49341L20.9854 5.93405L23.3751 5.94087C24.8604 5.94522 26.0937 7.14072 26.0943 8.65449L26.098 22.9968C26.098 24.5416 24.9106 25.7557 23.3633 25.7737H13.9203V30.0755H18.7265C18.925 30.1202 19.0609 30.2648 19.0634 30.4472C19.0659 30.5892 18.9368 30.8213 18.7284 30.8213H8.67049C8.41737 30.8213 8.29143 30.5818 8.3181 30.3932C8.34478 30.2046 8.5036 30.0811 8.72074 30.0755H13.1783V25.7737H3.80534C2.22643 25.7923 0.998047 24.5689 0.998047 22.9981V8.71343C0.998047 7.16802 2.19293 5.94398 3.7402 5.93963L6.39053 5.93219L11.1515 1.17871H19.0832H19.0838ZM6.85707 20.5928L20.2415 20.5909V3.44502C20.2123 2.56654 19.5473 1.92257 18.6744 1.92381H11.6751L11.667 4.48108C11.6627 5.75413 10.6204 6.74615 9.36037 6.73684L6.85459 6.7387L6.85707 20.5928ZM9.45157 5.98616C10.3183 5.98864 10.9393 5.24169 10.9287 4.42525L10.9027 2.47844L7.4024 5.97934L9.45157 5.98554V5.98616ZM6.11073 20.5872V6.68597L3.68064 6.68969C2.5875 6.69155 1.75183 7.59299 1.74066 8.67744V20.5959L6.11073 20.5866V20.5872ZM25.3511 8.6793C25.3511 7.54212 24.4552 6.68473 23.372 6.68597L20.9854 6.68783L20.9872 20.5953L25.353 20.5915L25.3511 8.6793ZM23.3925 25.0255C24.5353 25.0255 25.361 24.0713 25.3536 23.0123L25.3418 21.3379H1.74687L1.74314 23.0409C1.74066 24.1427 2.62411 25.0286 3.74826 25.0286L23.3925 25.0261V25.0255Z" fill="#E60076" stroke="#E60076"/>
    <path d="M13.5479 9.87305H9.8418" stroke="#E60076" stroke-width="1.5" stroke-linecap="round" stroke-linejoin="round"/>
    <path d="M17.2539 13.3594H9.8418" stroke="#E60076" stroke-width="1.5" stroke-linecap="round" stroke-linejoin="round"/>
    <path d="M17.2539 16.8457H9.8418" stroke="#E60076" stroke-width="1.5" stroke-linecap="round" stroke-linejoin="round"/>
  </g>
  <defs>
    <clipPath id="clip0_11117_3339">
      <rect width="27.0956" height="32" fill="white"/>
    </clipPath>
  </defs>
</svg>