<svg width="28" height="32" viewBox="0 0 28 32" fill="none" xmlns="http://www.w3.org/2000/svg">
<g clip-path="url(#clip0_11131_1484)">
<path d="M21.5444 5.53027L21.6364 5.93375L23.3751 5.94057C24.8604 5.94491 26.0937 7.14042 26.0943 8.65418L26.098 22.9965C26.098 24.5413 24.9106 25.7554 23.3633 25.7734H13.9203H13.1783H3.80534C2.22643 25.792 0.998047 24.5686 0.998047 22.9978V8.71312C0.998047 7.16771 2.19293 5.94367 3.7402 5.93933L5.39053 5.93188M5.85459 6.7384L5.85707 20.5925L21.6382 20.595M21.6382 20.595L21.6364 6.68753L23.372 6.68567C24.4552 6.68442 25.3511 7.54181 25.3511 8.679L25.353 20.5912L21.6382 20.595ZM5.11073 20.5869V6.68567L3.68064 6.68939C2.5875 6.69125 1.75183 7.59269 1.74066 8.67714V20.5956L5.11073 20.5869ZM23.3925 25.0252C24.5353 25.0252 25.361 24.071 25.3536 23.012L25.3418 21.3376H1.74687L1.74314 23.0406C1.74066 24.1424 2.62411 25.0283 3.74826 25.0283L23.3925 25.0252Z" stroke="#009966"/>
<path d="M9.92383 25.9141L9.86523 26.1641L9.22559 28.9092L9.08203 29.5234H18.0146L17.8633 28.9053L17.1924 26.1602L17.1328 25.9141H17.7236L17.8438 26.4014L18.5146 29.1338L18.6055 29.5078L18.9912 29.5146L19.7217 29.5273H19.751C19.8966 29.5215 20.0508 29.6403 20.0557 29.8516C20.0583 29.9666 20.0194 30.0598 19.9688 30.1182C19.9224 30.1716 19.8598 30.2051 19.7725 30.2051H7.32422C7.24693 30.2051 7.1834 30.1735 7.13184 30.1133C7.07587 30.0479 7.03913 29.9522 7.04102 29.8516C7.04485 29.6497 7.18778 29.5306 7.32422 29.5273L7.32324 29.5264L8.10352 29.5137L8.49414 29.5068L8.58203 29.127L9.21582 26.4014L9.36328 25.9141H9.92383Z" fill="#009966" stroke="#009966"/>
<path d="M16.5416 1.12891H10.6122C10.0665 1.12891 9.62402 1.56971 9.62402 2.11346V4.08258C9.62402 4.62634 10.0665 5.06714 10.6122 5.06714H16.5416C17.0873 5.06714 17.5298 4.62634 17.5298 4.08258V2.11346C17.5298 1.56971 17.0873 1.12891 16.5416 1.12891Z" stroke="#009966" stroke-width="2" stroke-linecap="round" stroke-linejoin="round"/>
<path d="M17.5295 3.10059H19.506C20.0302 3.10059 20.5329 3.30805 20.9035 3.67733C21.2742 4.04661 21.4824 4.54746 21.4824 5.0697V18.8535C21.4824 19.3758 21.2742 19.8766 20.9035 20.2459C20.5329 20.6152 20.0302 20.8226 19.506 20.8226H7.64734C7.12315 20.8226 6.62044 20.6152 6.24978 20.2459C5.87913 19.8766 5.6709 19.3758 5.6709 18.8535V5.0697C5.6709 4.54746 5.87913 4.04661 6.24978 3.67733C6.62044 3.30805 7.12315 3.10059 7.64734 3.10059H9.62378" stroke="#009966" stroke-width="2" stroke-linecap="round" stroke-linejoin="round"/>
<path d="M13.5771 9.99023H17.53" stroke="#009966" stroke-width="2" stroke-linecap="round" stroke-linejoin="round"/>
<path d="M13.5771 14.915H17.53" stroke="#009966" stroke-width="2" stroke-linecap="round" stroke-linejoin="round"/>
<path d="M9.62402 9.99023H9.63402" stroke="#009966" stroke-width="2" stroke-linecap="round" stroke-linejoin="round"/>
<path d="M9.62402 14.915H9.63402" stroke="#009966" stroke-width="2" stroke-linecap="round" stroke-linejoin="round"/>
</g>
<defs>
<clipPath id="clip0_11131_1484">
<rect width="27.0956" height="32" fill="white"/>
</clipPath>
</defs>
</svg>
