<svg width="28" height="28" viewBox="0 0 28 28" fill="none" xmlns="http://www.w3.org/2000/svg">
<path d="M12.7778 25.8922C13.1494 26.1068 13.5709 26.2197 14 26.2197C14.4291 26.2197 14.8506 26.1068 15.2222 25.8922L23.7778 21.0033C24.149 20.789 24.4574 20.4808 24.6719 20.1097C24.8864 19.7386 24.9996 19.3175 25 18.8889V9.1111C24.9996 8.68244 24.8864 8.26142 24.6719 7.8903C24.4574 7.51917 24.149 7.21099 23.7778 6.99666L15.2222 2.10777C14.8506 1.89322 14.4291 1.78027 14 1.78027C13.5709 1.78027 13.1494 1.89322 12.7778 2.10777L4.22222 6.99666C3.85099 7.21099 3.54264 7.51917 3.32812 7.8903C3.1136 8.26142 3.00044 8.68244 3 9.1111V18.8889C3.00044 19.3175 3.1136 19.7386 3.32812 20.1097C3.54264 20.4808 3.85099 20.789 4.22222 21.0033L12.7778 25.8922Z" stroke="white" stroke-width="2.44444" stroke-linecap="round" stroke-linejoin="round"/>
<path d="M14 26.2222V14" stroke="white" stroke-width="2.44444" stroke-linecap="round" stroke-linejoin="round"/>
<path d="M3.35547 7.88965L14.001 14.0008L24.6466 7.88965" stroke="white" stroke-width="2.44444" stroke-linecap="round" stroke-linejoin="round"/>
<path d="M8.5 4.55176L19.5 10.8462" stroke="white" stroke-width="2.44444" stroke-linecap="round" stroke-linejoin="round"/>
</svg>
