<svg width="28" height="28" viewBox="0 0 28 28" fill="none" xmlns="http://www.w3.org/2000/svg">
<g clip-path="url(#clip0_11136_1351)">
<path d="M27.3027 15.9235C27.3027 15.9235 27.3344 16.2596 27.3344 16.4684C27.3344 16.6772 27.3027 17.0147 27.3027 17.0147C26.932 19.9455 24.5531 22.1683 21.523 22.1641L14.9928 22.1558C12.1848 22.1523 8.82184 20.0545 8.40949 17.2611L6.46824 17.2556C3.48326 17.25 0.992533 15.0224 0.721107 12.0555C0.422609 8.80323 2.96401 5.8592 6.26832 5.85156L12.8546 5.85185C15.7258 5.84491 19.1666 7.87302 19.5907 10.7442L21.5792 10.749C24.5933 10.7539 27.0812 13.0066 27.3027 15.9235ZM21.6681 20.4766C23.9033 20.4766 25.6186 18.6058 25.6249 16.4684C25.6311 14.331 23.8992 12.4359 21.6896 12.4331L19.5796 12.4289C19.1298 15.2133 16.7557 17.2389 13.963 17.2528C13.4778 17.2549 13.1092 16.8828 13.1064 16.4163C13.1043 15.9998 13.4417 15.5819 13.9109 15.5819C16.1663 15.5826 17.9754 13.7652 17.9712 11.5362C17.9671 9.35649 15.1995 7.52038 12.9573 7.52107H6.3662C4.11635 7.52176 2.35174 9.39883 2.37465 11.5862C2.39756 13.7805 4.18299 15.5791 6.41618 15.5771L8.42129 15.5743C8.86835 12.7885 11.3428 11.0115 14.1348 10.9955C14.6242 10.9928 14.9907 11.3704 14.9928 11.8313C14.9949 12.2923 14.6297 12.6699 14.1397 12.6727C11.903 12.6866 10.0256 14.2588 10.0297 16.4677C10.0339 18.6162 12.7714 20.4787 14.9928 20.4787L21.6694 20.4773L21.6681 20.4766Z" fill="white" stroke="white" stroke-width="0.8"/>
</g>
<defs>
<clipPath id="clip0_11136_1351">
<rect width="28" height="28" fill="white"/>
</clipPath>
</defs>
</svg>
